<?xml version="1.0" standalone="no"?>
<!DOCTYPE svg PUBLIC "-//W3C//DTD SVG 20010904//EN"
 "http://www.w3.org/TR/2001/REC-SVG-20010904/DTD/svg10.dtd">
<svg version="1.0" xmlns="http://www.w3.org/2000/svg"
 width="155.000000pt" height="155.000000pt" viewBox="0 0 155.000000 155.000000"
 preserveAspectRatio="xMidYMid meet">
<metadata>
Created by potrace 1.11, written by Peter Selinger 2001-2013
</metadata>
<g transform="translate(0.000000,155.000000) scale(0.100000,-0.100000)"
fill="#000000" stroke="none">
<path d="M1125 1049 c-60 -8 -159 -44 -181 -66 -12 -13 -21 -14 -47 -4 l-32
11 33 -5 c28 -4 33 -2 30 13 -2 9 -12 17 -23 17 -11 1 -25 4 -32 8 -16 10 -87
12 -103 2 -7 -4 -25 -9 -40 -10 -43 -4 -79 -35 -90 -80 -6 -22 -13 -45 -14
-50 -3 -7 -57 -10 -157 -9 -87 1 -162 -2 -173 -8 -15 -8 -26 -3 -59 32 -35 36
-45 41 -71 36 -17 -4 -37 -13 -46 -21 -18 -18 -18 -91 0 -108 9 -9 11 -4 9 25
-3 30 1 41 19 54 19 13 22 13 22 0 0 -8 4 -17 9 -20 5 -4 7 4 4 16 l-5 23 17
-23 c9 -12 22 -20 28 -16 7 3 3 -2 -7 -10 -11 -9 -25 -16 -30 -16 -6 0 -4 -5
4 -10 13 -9 13 -10 0 -10 -9 0 -21 5 -28 10 -6 6 -10 7 -7 4 3 -4 -1 -14 -8
-23 -11 -14 -10 -15 8 -1 19 14 19 14 6 -2 -7 -10 -20 -18 -28 -18 -8 0 -12
-4 -9 -9 3 -4 -1 -35 -10 -67 -18 -69 -13 -98 20 -119 33 -22 69 -11 106 32
24 27 36 33 58 29 110 -18 164 -25 207 -26 28 0 57 -1 65 -1 8 0 22 1 29 3 9
2 22 -12 32 -33 22 -45 46 -66 60 -52 7 7 20 1 40 -19 20 -21 35 -28 47 -23 9
4 32 8 51 9 19 1 36 7 39 14 2 7 7 10 12 7 4 -3 19 -1 31 4 17 6 32 3 54 -10
36 -23 46 -24 39 -4 -4 8 -10 12 -15 9 -5 -3 -6 3 -2 13 6 16 5 17 -12 3 -17
-14 -18 -13 -12 4 6 14 4 17 -8 12 -9 -3 -15 0 -15 10 0 10 -6 14 -14 11 -9
-4 -16 3 -20 16 -5 18 -8 20 -16 7 -8 -13 -11 -13 -26 1 -15 15 -14 17 8 17
12 0 30 1 38 3 10 3 14 -2 12 -13 -2 -12 3 -16 18 -13 12 2 29 -5 42 -18 11
-12 18 -17 14 -10 -4 7 1 9 15 6 21 -6 21 -7 4 -19 -27 -20 -4 -41 63 -60 95
-28 189 -18 252 27 35 24 35 53 -1 83 -26 22 -38 25 -120 25 -58 0 -103 -5
-126 -14 -51 -21 -84 -19 -144 11 -61 31 -56 37 45 61 62 14 85 13 168 -6 26
-6 89 -11 140 -12 168 -2 186 4 38 12 -80 5 -154 11 -165 13 -11 2 -27 5 -35
7 -8 1 1 5 20 10 32 7 31 8 -12 5 -25 -2 -52 0 -60 5 -10 7 -9 9 5 9 10 0 15
5 12 10 -3 6 -1 10 4 10 6 0 11 -4 11 -8 0 -5 7 -9 15 -9 9 0 14 6 11 14 -4 9
3 13 20 13 51 0 327 130 310 147 -2 2 -27 -10 -55 -27 -106 -66 -278 -126
-346 -121 -65 4 -76 6 -83 17 -4 6 -22 19 -39 29 -18 11 -33 22 -33 26 0 3 18
22 39 42 38 35 41 36 73 23 38 -16 104 -13 203 8 119 25 129 37 73 84 -67 57
-88 63 -173 51z m142 -46 c38 -29 43 -39 11 -21 -13 6 -28 13 -34 14 -6 1 -21
5 -32 9 -22 6 -31 -9 -34 -61 -1 -13 -7 -20 -15 -17 -7 3 -20 -3 -29 -12 -14
-13 -19 -14 -25 -3 -5 7 -9 10 -9 6 0 -4 -16 0 -36 8 -30 13 -38 13 -45 2 -7
-10 -9 -9 -9 5 0 9 5 17 12 17 6 0 9 2 7 4 -3 3 -21 1 -42 -3 l-37 -9 21 30
c12 16 24 26 28 22 3 -4 0 -9 -6 -11 -7 -3 -13 -9 -13 -14 0 -6 5 -7 10 -4 6
4 22 9 36 11 15 3 32 6 38 7 6 1 14 7 18 12 5 6 8 6 8 -2 0 -6 12 -11 28 -9
30 2 52 13 52 25 0 9 -80 3 -129 -9 -23 -6 -31 -6 -24 1 6 6 38 14 73 19 34 5
65 11 67 14 12 12 79 -7 110 -31z m-556 -39 c-11 -14 -25 -41 -31 -60 -6 -19
-16 -34 -21 -34 -5 0 -9 2 -9 5 0 14 33 81 47 97 25 28 37 21 14 -8z m127 1
c-14 -13 -33 -42 -42 -64 -14 -29 -22 -37 -37 -34 -23 6 -23 7 -4 42 17 35 71
81 92 81 12 0 10 -6 -9 -25z m-80 -2 c-9 -10 -25 -37 -37 -60 -26 -53 -37 -57
-16 -6 16 37 32 62 50 75 17 13 19 9 3 -9z m527 -2 c14 -1 16 -4 7 -9 -18 -12
-95 -9 -99 4 -3 10 15 11 92 5z m-400 -11 c3 -5 -10 -26 -30 -45 -41 -42 -45
-35 -10 18 28 40 31 42 40 27z m69 -31 c-3 -5 -10 -6 -16 -3 -7 5 -8 2 -3 -5
4 -8 -1 -21 -14 -32 -27 -25 -45 -16 -29 14 6 12 11 24 10 27 -1 3 2 5 7 5 5
0 12 3 16 7 10 9 36 -2 29 -13z m101 -9 c3 -6 -1 -7 -9 -4 -18 7 -21 14 -7 14
6 0 13 -4 16 -10z m-645 -59 c9 -18 7 -19 -18 -16 -15 2 -29 4 -32 5 -5 1 31
30 37 30 1 0 7 -9 13 -19z m101 -4 c4 -5 14 -5 27 2 27 15 39 14 45 -3 4 -11
-1 -13 -24 -9 -20 3 -31 0 -35 -11 -5 -13 -8 -14 -20 -1 -8 8 -21 12 -28 9 -8
-3 -17 0 -21 5 -3 6 -12 9 -18 5 -7 -3 -4 1 6 9 18 15 57 12 68 -6z m-181 -1
c0 -18 -27 -29 -36 -14 -4 7 -3 8 4 4 7 -4 12 -1 12 8 0 9 5 16 10 16 6 0 10
-6 10 -14z m424 2 c-3 -4 0 -8 6 -8 6 0 9 -4 5 -9 -3 -6 5 -8 19 -5 17 3 25
-1 29 -16 3 -12 14 -20 27 -20 13 0 19 4 14 12 -4 6 -3 8 4 4 5 -3 12 -1 14 5
2 7 13 9 26 5 12 -4 20 -11 17 -16 -3 -5 6 -17 20 -26 13 -9 22 -20 19 -25 -3
-5 2 -9 11 -9 9 0 14 4 11 9 -4 5 3 7 14 4 26 -7 38 -26 14 -22 -11 2 -32 -2
-49 -8 -59 -22 -70 -25 -97 -28 -25 -2 -27 0 -31 44 l-3 46 -2 -53 c-2 -45 -5
-54 -24 -61 -13 -5 -28 -5 -34 0 -17 14 -44 0 -37 -19 4 -13 2 -12 -11 3 -15
17 -17 17 -12 3 3 -10 1 -18 -4 -18 -6 0 -10 6 -10 14 0 9 -7 13 -20 11 -11
-2 -20 -1 -20 3 0 14 15 27 35 30 25 5 34 13 19 19 -6 2 -19 9 -28 16 -14 10
-11 12 18 12 24 0 32 -3 29 -13 -3 -7 -2 -12 3 -11 21 3 35 -2 29 -11 -4 -6 2
-7 17 -1 13 5 23 17 23 27 0 19 -2 20 -76 23 -17 0 -28 5 -24 11 3 6 -1 10 -9
10 -9 0 -16 -6 -17 -12 0 -14 -17 20 -18 37 -1 13 51 37 58 26 8 -10 41 -10
41 1 0 4 -4 8 -10 8 -5 0 -10 4 -10 8 0 5 7 9 15 9 8 0 12 -4 9 -9z m-516 -33
c-28 -14 -35 -11 -17 8 8 8 20 12 27 9 9 -3 6 -8 -10 -17z m382 21 c0 -3 -4
-8 -10 -11 -5 -3 -10 -1 -10 4 0 6 5 11 10 11 6 0 10 -2 10 -4z m-150 -26 c0
-5 -2 -10 -4 -10 -3 0 -8 5 -11 10 -3 6 -1 10 4 10 6 0 11 -4 11 -10z m30 0
c0 -5 -2 -10 -4 -10 -3 0 -8 5 -11 10 -3 6 -1 10 4 10 6 0 11 -4 11 -10z
m-186 -34 c-2 -16 -1 -16 17 0 10 9 19 14 19 10 0 -4 6 -4 13 1 17 11 31 10
39 -2 5 -7 8 -6 8 1 0 12 65 13 76 1 4 -4 13 -2 21 4 7 7 13 7 13 2 0 -5 13
-9 29 -8 46 3 100 -23 94 -45 -3 -10 -16 -20 -29 -23 -20 -4 -24 0 -24 22 0
18 -3 22 -9 12 -5 -7 -7 -23 -4 -35 4 -19 3 -19 -10 3 -9 16 -16 20 -19 11 -4
-14 -73 -19 -120 -8 -16 4 -28 2 -28 -3 0 -6 -4 -7 -10 -4 -5 3 -10 1 -10 -4
0 -6 -5 -11 -11 -11 -5 0 -8 4 -4 9 3 5 -8 16 -25 25 -17 8 -28 10 -24 5 3 -6
-16 -8 -52 -5 -32 3 -66 0 -77 -6 -27 -14 -57 14 -36 34 8 7 25 13 39 14 14 1
34 5 44 9 16 7 18 5 12 -11 -6 -17 -4 -16 16 4 26 26 54 25 52 -2z m661 4 c3
-5 -1 -10 -9 -10 -8 0 -18 5 -21 10 -3 6 1 10 9 10 8 0 18 -4 21 -10z m-197
-48 c5 -17 -13 -15 -27 2 -10 12 -9 14 5 12 10 -2 20 -8 22 -14z m-618 -23 c0
-5 4 -8 9 -4 5 3 13 0 17 -6 5 -8 2 -10 -7 -5 -8 4 -4 -1 9 -10 26 -20 28 -30
5 -52 -16 -16 -16 -15 -10 8 l6 25 -17 -22 c-16 -20 -18 -20 -32 -5 -13 14
-12 15 3 9 11 -4 16 -3 12 3 -3 6 -13 10 -21 10 -15 0 -18 18 -8 44 7 18 34
22 34 5z m83 -22 c-7 -11 -23 2 -23 19 0 12 2 12 14 2 8 -7 12 -16 9 -21z m67
-2 c0 -11 -31 -11 -39 -1 -9 10 -6 12 14 8 14 -2 25 -6 25 -7z m78 -8 c6 0 12
-4 12 -9 0 -14 -35 -9 -56 8 -18 14 -18 15 6 8 14 -4 31 -7 38 -7z m107 -7
c11 -2 -23 -18 -41 -19 -5 -1 -19 5 -30 13 -17 14 -16 15 21 11 22 -1 45 -4
50 -5z m119 4 c9 -3 14 -10 11 -15 -7 -10 -35 0 -35 12 0 11 3 11 24 3z m-34
-13 c0 -5 -7 -11 -15 -15 -9 -3 -15 0 -15 9 0 8 7 15 15 15 8 0 15 -4 15 -9z
m265 -52 c36 -32 38 -49 5 -49 -11 0 -25 13 -34 32 -29 57 -22 61 29 17z m340
1 c6 -5 16 -6 20 -2 5 4 5 -1 2 -10 -4 -12 1 -21 13 -28 11 -6 20 -7 20 -3 0
4 7 -2 15 -13 13 -16 14 -17 9 -1 -5 15 -2 17 20 13 14 -2 28 0 31 5 4 5 13 9
22 9 34 0 -31 -51 -84 -66 -55 -16 -107 -14 -173 7 -49 16 -57 26 -37 46 16
16 17 16 17 -4 0 -15 8 -22 28 -26 15 -3 41 -9 57 -12 27 -5 27 -4 -9 15 -22
11 -46 20 -53 20 -9 0 -11 5 -6 13 4 6 8 19 8 27 0 9 7 14 19 12 10 -2 15 1
12 6 -7 12 53 5 69 -8z m-492 -33 c-3 -5 -11 0 -19 10 -20 27 -17 39 5 17 10
-10 16 -23 14 -27z m37 22 c0 -6 -4 -7 -10 -4 -5 3 -10 11 -10 16 0 6 5 7 10
4 6 -3 10 -11 10 -16z m575 11 c15 -6 11 -8 -17 -6 -21 1 -41 5 -44 9 -10 10
37 7 61 -3z m-511 -50 c-6 -5 -24 21 -24 34 0 6 6 1 14 -10 8 -10 12 -21 10
-24z"/>
<path d="M660 799 c0 -5 5 -7 10 -4 6 3 10 8 10 11 0 2 -4 4 -10 4 -5 0 -10
-5 -10 -11z"/>
<path d="M865 784 c-9 -14 -14 -31 -12 -37 3 -7 10 1 16 16 6 16 15 25 21 22
5 -3 10 -2 10 4 0 22 -19 19 -35 -5z"/>
<path d="M532 759 c-12 -19 -11 -19 8 -9 11 6 18 15 15 21 -8 12 -8 12 -23
-12z"/>
<path d="M1114 598 c-5 -7 -3 -8 6 -3 7 4 16 2 21 -6 7 -11 9 -10 9 4 0 19
-25 23 -36 5z"/>
<path d="M1182 538 c8 -17 18 -24 30 -20 10 2 15 9 12 14 -3 5 -9 7 -12 4 -3
-3 -13 1 -23 10 -17 16 -18 15 -7 -8z"/>
</g>
</svg>
